<mxfile host="app.diagrams.net" agent="Mozilla/5.0 (Windows NT 10.0; Win64; x64) AppleWebKit/537.36 (KHTML, like Gecko) Chrome/140.0.0.0 Safari/537.36" version="28.2.3">
  <diagram name="Страница — 1" id="fcNxy3meYumzlkpffO4v">
    <mxGraphModel dx="1426" dy="777" grid="1" gridSize="10" guides="1" tooltips="1" connect="1" arrows="1" fold="1" page="1" pageScale="1" pageWidth="827" pageHeight="1169" math="0" shadow="0">
      <root>
        <mxCell id="0" />
        <mxCell id="1" parent="0" />
        <mxCell id="C6i87rUGvG97fZtMgRSR-1" value="Начало" style="ellipse;whiteSpace=wrap;html=1;" vertex="1" parent="1">
          <mxGeometry x="305" y="210" width="120" height="80" as="geometry" />
        </mxCell>
        <mxCell id="C6i87rUGvG97fZtMgRSR-4" value="" style="endArrow=classic;html=1;rounded=0;exitX=0.5;exitY=1;exitDx=0;exitDy=0;" edge="1" parent="1" source="C6i87rUGvG97fZtMgRSR-1">
          <mxGeometry width="50" height="50" relative="1" as="geometry">
            <mxPoint x="390" y="630" as="sourcePoint" />
            <mxPoint x="365" y="350" as="targetPoint" />
          </mxGeometry>
        </mxCell>
        <mxCell id="C6i87rUGvG97fZtMgRSR-7" style="edgeStyle=orthogonalEdgeStyle;rounded=0;orthogonalLoop=1;jettySize=auto;html=1;exitX=0.5;exitY=1;exitDx=0;exitDy=0;entryX=0.5;entryY=0;entryDx=0;entryDy=0;" edge="1" parent="1" source="C6i87rUGvG97fZtMgRSR-5" target="C6i87rUGvG97fZtMgRSR-6">
          <mxGeometry relative="1" as="geometry" />
        </mxCell>
        <mxCell id="C6i87rUGvG97fZtMgRSR-5" value="&lt;div&gt;&lt;span style=&quot;white-space-collapse: break-spaces; font-family: &amp;quot;Monaspace Neon&amp;quot;, ui-monospace, SFMono-Regular, &amp;quot;SF Mono&amp;quot;, Menlo, Consolas, &amp;quot;Liberation Mono&amp;quot;, monospace; font-size: 13.6px;&quot;&gt;&lt;font style=&quot;color: light-dark(rgb(240, 246, 252), rgb(246, 246, 246));&quot;&gt;Ввод:&lt;/font&gt;&lt;/span&gt;&lt;/div&gt;&lt;span style=&quot;white-space-collapse: break-spaces; font-family: &amp;quot;Monaspace Neon&amp;quot;, ui-monospace, SFMono-Regular, &amp;quot;SF Mono&amp;quot;, Menlo, Consolas, &amp;quot;Liberation Mono&amp;quot;, monospace; font-size: 13.6px;&quot;&gt;&lt;font style=&quot;color: light-dark(rgb(240, 246, 252), rgb(246, 246, 246));&quot;&gt;GRAMS_PER_QUART = 950&lt;/font&gt;&lt;/span&gt;&lt;div&gt;&lt;span style=&quot;font-family: &amp;quot;Monaspace Neon&amp;quot;, ui-monospace, SFMono-Regular, &amp;quot;SF Mono&amp;quot;, Menlo, Consolas, &amp;quot;Liberation Mono&amp;quot;, monospace; font-size: 13.6px; white-space-collapse: break-spaces;&quot;&gt;MASS_PER_MOLECULE = 3.0e-23&lt;/span&gt;&lt;span style=&quot;font-family: &amp;quot;Monaspace Neon&amp;quot;, ui-monospace, SFMono-Regular, &amp;quot;SF Mono&amp;quot;, Menlo, Consolas, &amp;quot;Liberation Mono&amp;quot;, monospace; font-size: 13.6px; white-space-collapse: break-spaces;&quot;&gt;&lt;font style=&quot;color: light-dark(rgb(240, 246, 252), rgb(246, 246, 246));&quot;&gt;&lt;/font&gt;&lt;/span&gt;&lt;/div&gt;&lt;div&gt;&lt;font face=&quot;Monaspace Neon, ui-monospace, SFMono-Regular, SF Mono, Menlo, Consolas, Liberation Mono, monospace&quot;&gt;&lt;span style=&quot;font-size: 13.6px; white-space-collapse: break-spaces;&quot;&gt;&amp;nbsp;&lt;span style=&quot;white-space: pre;&quot;&gt;&#x9;&lt;/span&gt;quarts = 10&lt;/span&gt;&lt;/font&gt;&lt;/div&gt;" style="shape=parallelogram;perimeter=parallelogramPerimeter;whiteSpace=wrap;html=1;fixedSize=1;" vertex="1" parent="1">
          <mxGeometry x="247.5" y="350" width="235" height="110" as="geometry" />
        </mxCell>
        <mxCell id="C6i87rUGvG97fZtMgRSR-17" style="edgeStyle=orthogonalEdgeStyle;rounded=0;orthogonalLoop=1;jettySize=auto;html=1;exitX=0.5;exitY=1;exitDx=0;exitDy=0;entryX=0.5;entryY=0;entryDx=0;entryDy=0;" edge="1" parent="1" source="C6i87rUGvG97fZtMgRSR-6" target="C6i87rUGvG97fZtMgRSR-11">
          <mxGeometry relative="1" as="geometry" />
        </mxCell>
        <mxCell id="C6i87rUGvG97fZtMgRSR-6" value="&lt;div style=&quot;text-align: left;&quot;&gt;&lt;font style=&quot;color: light-dark(rgb(240, 246, 252), rgb(255, 255, 255));&quot; face=&quot;Monaspace Neon, ui-monospace, SFMono-Regular, SF Mono, Menlo, Consolas, Liberation Mono, monospace&quot;&gt;&lt;span style=&quot;font-size: 13.6px; white-space-collapse: break-spaces;&quot;&gt;grams = quarts * GRAMS_PER_QUART&lt;/span&gt;&lt;/font&gt;&lt;/div&gt;&lt;div style=&quot;text-align: left;&quot;&gt;&lt;span style=&quot;text-align: center;&quot;&gt;molecules = grams / MASS_PER_MOLECULE&lt;/span&gt;&lt;font style=&quot;color: light-dark(rgb(240, 246, 252), rgb(255, 255, 255));&quot; face=&quot;Monaspace Neon, ui-monospace, SFMono-Regular, SF Mono, Menlo, Consolas, Liberation Mono, monospace&quot;&gt;&lt;span style=&quot;font-size: 13.6px; white-space-collapse: break-spaces;&quot;&gt;&lt;/span&gt;&lt;/font&gt;&lt;/div&gt;" style="rounded=0;whiteSpace=wrap;html=1;" vertex="1" parent="1">
          <mxGeometry x="230" y="480" width="270" height="70" as="geometry" />
        </mxCell>
        <mxCell id="C6i87rUGvG97fZtMgRSR-16" style="edgeStyle=orthogonalEdgeStyle;rounded=0;orthogonalLoop=1;jettySize=auto;html=1;exitX=0.5;exitY=1;exitDx=0;exitDy=0;entryX=0.5;entryY=0;entryDx=0;entryDy=0;" edge="1" parent="1" source="C6i87rUGvG97fZtMgRSR-11" target="C6i87rUGvG97fZtMgRSR-15">
          <mxGeometry relative="1" as="geometry" />
        </mxCell>
        <mxCell id="C6i87rUGvG97fZtMgRSR-11" value="Вывод:&lt;div&gt;условия задачи,&lt;/div&gt;&lt;div&gt;расчёт,&lt;/div&gt;&lt;div&gt;molecules&lt;/div&gt;" style="shape=parallelogram;perimeter=parallelogramPerimeter;whiteSpace=wrap;html=1;fixedSize=1;" vertex="1" parent="1">
          <mxGeometry x="230" y="584.5" width="270" height="95" as="geometry" />
        </mxCell>
        <mxCell id="C6i87rUGvG97fZtMgRSR-15" value="Конец" style="ellipse;whiteSpace=wrap;html=1;" vertex="1" parent="1">
          <mxGeometry x="305" y="720" width="120" height="80" as="geometry" />
        </mxCell>
      </root>
    </mxGraphModel>
  </diagram>
</mxfile>
